<?xml version="1.0" encoding="UTF-8" standalone="no"?>
<!-- Created with Inkscape (http://www.inkscape.org/) -->

<svg
   width="38.486385mm"
   height="34.796085mm"
   viewBox="0 0 38.486386 34.796085"
   version="1.1"
   id="svg1427"
   xmlns="http://www.w3.org/2000/svg"
   xmlns:svg="http://www.w3.org/2000/svg">
  <defs
     id="defs1424" />
  <g
     id="layer1"
     transform="translate(-46.958967,-121.35579)">
    <path
       d="m 49.970629,153.13806 -3.009892,-3.0138 5.574576,-5.5724 c 3.066016,-3.06482 5.574574,-5.65334 5.574574,-5.75227 0,-0.0989 -2.508956,-2.68978 -5.57546,-5.75744 l -5.57546,-5.57756 3.058366,-3.0544 3.058365,-3.0544 8.721529,8.72014 8.721528,8.72014 -8.676518,8.67789 c -4.772086,4.77285 -8.718188,8.67791 -8.769117,8.67791 -0.05093,0 -1.44705,-1.35622 -3.102491,-3.01381 z m 14.926608,1e-5 -3.009882,-3.0138 5.664501,-5.66235 5.664502,-5.66237 -5.665403,-5.66747 -5.665404,-5.66748 3.058372,-3.0544 3.058374,-3.05441 8.721529,8.72014 8.721528,8.72014 -8.676518,8.67789 c -4.772086,4.77285 -8.718187,8.67791 -8.769118,8.67791 -0.05093,0 -1.447045,-1.35621 -3.102481,-3.0138 z"
       style="fill:#1685ac;fill-opacity:1;stroke-width:0.179838"
       id="path3027" />
    <path
       style="fill:#c5d9eb;fill-opacity:1;stroke:#129ea7;stroke-width:0.197706;stroke-opacity:1"
       d="m 53.276907,142.85457 c -0.651357,-2.04366 -1.609728,-5.07252 -2.129711,-6.73079 -0.733138,-2.33801 -1.02104,-3.01502 -1.282159,-3.01502 -0.786647,0 -0.962189,-0.22028 -0.962189,-1.20739 v -0.96739 h 2.669037 2.669037 v 0.97958 c 0,0.96298 -0.01173,0.98177 -0.691973,1.10939 -0.380583,0.0715 -0.691972,0.16549 -0.691972,0.20912 0,0.17258 2.792717,9.06191 2.87177,9.14097 0.04648,0.0465 0.126277,-0.0394 0.177314,-0.19092 0.435976,-1.29404 2.684404,-8.69948 2.684404,-8.84136 0,-0.10038 -0.266904,-0.23596 -0.59312,-0.3012 -0.564595,-0.11293 -0.59312,-0.16641 -0.59312,-1.1121 v -0.99348 h 2.669038 2.669037 v 0.97958 c 0,0.96298 -0.01171,0.98177 -0.691972,1.10939 -0.380585,0.0715 -0.690597,0.18664 -0.688914,0.25608 0.0051,0.21093 2.750797,8.97608 2.839567,9.06486 0.04548,0.0455 0.221066,-0.34568 0.390195,-0.86923 0.714063,-2.21042 2.500667,-8.05478 2.500667,-8.18021 0,-0.0749 -0.266905,-0.18965 -0.593119,-0.25489 -0.564594,-0.11293 -0.593121,-0.16641 -0.593121,-1.1121 v -0.99348 h 2.570185 2.570183 v 0.98289 c 0,0.94238 -0.02641,0.98971 -0.640792,1.14892 l -0.640793,0.16605 -2.094963,6.61105 -2.094966,6.61105 h -1.337049 -1.337049 l -1.457097,-4.54726 c -0.971984,-3.03331 -1.497931,-4.41561 -1.579741,-4.15183 -0.06745,0.21748 -0.717011,2.26374 -1.443457,4.54725 l -1.320809,4.15184 -1.319029,0.0583 -1.319033,0.0582 z m 21.723192,2.71864 c 0,-0.96298 0.0117,-0.98176 0.691975,-1.10938 l 0.691969,-0.12982 v -5.51378 -5.51377 h -1.062114 -1.06212 l -0.126451,0.79083 -0.126466,0.79083 h -0.98619 -0.986198 v -1.97708 -1.97706 h 5.733484 5.733485 v 1.97706 1.97708 H 82.426022 81.35058 l -0.06138,-0.74141 -0.06138,-0.74139 h -1.08738 -1.087385 l -0.05252,5.46377 -0.05252,5.46376 0.695056,0.1304 c 0.683876,0.12829 0.695063,0.14615 0.695063,1.10996 v 0.97957 h -2.669036 -2.669041 z"
       id="path1422" />
  </g>
</svg>
