<?xml version="1.0" encoding="UTF-8" standalone="no"?>
<!-- Created with Inkscape (http://www.inkscape.org/) -->

<svg
   width="144.4287mm"
   height="34.796089mm"
   viewBox="0 0 144.4287 34.796089"
   version="1.1"
   id="svg1427"
   xmlns="http://www.w3.org/2000/svg"
   xmlns:svg="http://www.w3.org/2000/svg">
  <defs
     id="defs1424" />
  <g
     id="layer1"
     transform="translate(-28.264197,-121.31427)">
    <path
       style="fill:#447799;fill-opacity:1;stroke-width:0.179838"
       d="m 138.16389,147.26279 c 0,-0.87595 0.0107,-0.89304 0.62944,-1.00912 l 0.62943,-0.11809 v -5.3559 c 0,-5.76208 0.0308,-5.57421 -0.9139,-5.57421 -0.29407,0 -0.34497,-0.13267 -0.34497,-0.89919 v -0.8992 h 3.43741 c 3.16797,0 3.49053,0.0299 4.11509,0.38088 1.21347,0.68201 1.43943,1.35414 1.43943,4.28161 0,2.17799 -0.0512,2.64566 -0.35446,3.24017 -0.7209,1.41309 -2.15978,2.16829 -4.13122,2.16829 h -0.90947 v 1.32878 1.32877 l 0.62943,0.11809 c 0.61878,0.11608 0.62944,0.13317 0.62944,1.00912 v 0.89105 h -2.42782 -2.42783 z m 6.20197,-6.48002 c 0.43465,-0.40833 0.45206,-0.50866 0.45206,-2.60535 0,-1.45629 -0.0717,-2.25235 -0.21581,-2.39647 -0.12843,-0.12843 -0.74733,-0.2158 -1.52862,-0.2158 h -1.31282 v 2.89903 2.89902 l 1.07656,-0.0779 c 0.81417,-0.0589 1.18675,-0.18138 1.52863,-0.50256 z m -71.820728,-0.66872 c -0.592491,-1.85897 -1.464248,-4.61409 -1.937237,-6.12249 -0.66688,-2.12671 -0.928762,-2.74254 -1.166282,-2.74254 -0.715554,0 -0.875231,-0.20037 -0.875231,-1.09827 v -0.87995 h 2.42782 2.427821 v 0.89104 c 0,0.87595 -0.01067,0.89304 -0.629435,1.00913 -0.346189,0.065 -0.629435,0.15054 -0.629435,0.19022 0,0.15698 2.540322,8.24293 2.612231,8.31484 0.04228,0.0423 0.114864,-0.0359 0.161289,-0.17366 0.396574,-1.17709 2.441798,-7.91325 2.441798,-8.04231 0,-0.0913 -0.242782,-0.21464 -0.539516,-0.27398 -0.513569,-0.10272 -0.539516,-0.15137 -0.539516,-1.01159 v -0.90369 h 2.427821 2.42782 v 0.89104 c 0,0.87595 -0.01066,0.89304 -0.629434,1.00913 -0.34619,0.065 -0.628184,0.16977 -0.626653,0.23294 0.0046,0.19187 2.502191,8.16486 2.582938,8.24561 0.04137,0.0414 0.201087,-0.31444 0.354931,-0.79067 0.649529,-2.01065 2.274667,-7.32682 2.274667,-7.44091 0,-0.0682 -0.242783,-0.17252 -0.539516,-0.23186 -0.513568,-0.10272 -0.539516,-0.15137 -0.539516,-1.01159 v -0.90369 h 2.337901 2.337901 v 0.89405 c 0,0.85721 -0.02402,0.90027 -0.58288,1.04509 l -0.582881,0.15104 -1.905629,6.01357 -1.905631,6.01357 h -1.216212 -1.216212 l -1.32541,-4.13629 c -0.88414,-2.75918 -1.362554,-4.01654 -1.436971,-3.77661 -0.06136,0.19783 -0.65221,2.05915 -1.313002,4.13629 l -1.20144,3.77661 -1.199821,0.053 -1.199824,0.0529 z m 19.759939,2.47294 c 0,-0.87595 0.01066,-0.89304 0.629434,-1.00912 l 0.629435,-0.11809 v -5.01546 -5.01546 h -0.966127 -0.966127 l -0.115029,0.71935 -0.115031,0.71936 h -0.897067 -0.897067 v -1.79839 -1.79838 h 5.215318 5.21531 v 1.79838 1.79839 h -0.97825 -0.978254 l -0.05582,-0.6744 -0.05582,-0.67439 h -0.989109 -0.989111 l -0.04777,4.96998 -0.04777,4.96997 0.632244,0.11861 c 0.622071,0.1167 0.632244,0.13295 0.632244,1.00965 v 0.89104 h -2.42782 -2.42782 z m 7.912889,0 c 0,-0.87595 0.0107,-0.89304 0.62944,-1.00912 l 0.62943,-0.11809 v -3.01799 c 0,-3.21905 -0.005,-3.23632 -0.9139,-3.23632 -0.29407,0 -0.34497,-0.13267 -0.34497,-0.89919 v -0.8992 h 1.51969 c 1.20774,0 1.55284,0.0592 1.68115,0.28851 0.14818,0.26478 0.20733,0.26478 0.71936,0 0.39821,-0.20593 1.05142,-0.28851 2.28205,-0.28851 h 1.72414 l -0.0517,1.66351 -0.0517,1.66351 -0.79145,0.0566 c -0.84906,0.0608 -1.08932,-0.11954 -1.0941,-0.82095 -0.002,-0.35252 -0.0965,-0.40463 -0.73069,-0.40463 -0.55618,0 -0.832,0.11228 -1.16895,0.47585 -0.42364,0.45712 -0.44101,0.57319 -0.44101,2.94733 v 2.47145 l 0.62944,0.11809 c 0.61877,0.11608 0.62943,0.13317 0.62943,1.00912 v 0.89105 h -2.42782 -2.42782 z m 9.79534,0.53178 c -1.31542,-0.65114 -1.83341,-2.21363 -1.20488,-3.63452 0.48255,-1.09086 1.10988,-1.48619 3.30234,-2.08103 1.83774,-0.49861 1.8643,-0.51347 1.82689,-1.0222 -0.0513,-0.69815 -0.31486,-0.82702 -1.57947,-0.77246 -1.04413,0.0451 -1.0808,0.0634 -1.16988,0.58602 -0.0853,0.50064 -0.15345,0.54346 -0.94526,0.59433 l -0.85331,0.0548 v -1.71832 -1.71832 h 2.49114 c 2.28736,0 2.53978,0.0331 3.08568,0.40464 1.27466,0.86752 1.34086,1.08148 1.4033,4.53558 l 0.0563,3.11676 0.61806,0.11594 c 0.60541,0.11358 0.61805,0.13417 0.61805,1.00699 v 0.89105 l -3.46189,-1.5e-4 c -3.09739,-1.2e-4 -3.53825,-0.0379 -4.18711,-0.35912 z m 4.05223,-2.89363 v -1.09484 l -0.75576,0.12769 c -1.49405,0.25241 -2.1678,0.52639 -2.32243,0.9444 -0.1125,0.30413 -0.0608,0.49633 0.20501,0.76214 0.28633,0.28633 0.60022,0.35544 1.61431,0.35544 h 1.25887 z m 4.31612,2.36185 c 0,-0.87706 0.01,-0.89291 0.63359,-1.00991 l 0.6336,-0.11886 -0.0491,-3.07981 -0.0491,-3.07981 -0.53952,-0.0924 c -0.50056,-0.0858 -0.54348,-0.15407 -0.59433,-0.94576 l -0.0548,-0.8533 h 1.60916 c 1.24854,0 1.63185,0.0591 1.71042,0.26388 0.0884,0.23027 0.18713,0.228 0.77542,-0.0178 0.9631,-0.40241 3.10762,-0.27868 3.7724,0.21766 1.17125,0.87445 1.22901,1.07478 1.29049,4.47647 l 0.0564,3.11675 0.61805,0.11594 c 0.60542,0.11358 0.61806,0.13417 0.61806,1.00699 v 0.89105 h -2.42783 -2.42781 v -0.89105 c 0,-0.87595 0.0107,-0.89304 0.62943,-1.00912 l 0.62943,-0.11809 v -2.6647 c 0,-3.07827 -0.0643,-3.22993 -1.36981,-3.22993 -0.61448,0 -0.9089,0.1043 -1.24602,0.44142 -0.42652,0.42653 -0.44142,0.52617 -0.44142,2.95305 v 2.51162 l 0.53951,0.1185 c 0.51032,0.11208 0.53952,0.16639 0.53952,1.0034 v 0.8849 h -2.42782 -2.42782 z m 10.97016,-0.81742 v -1.70846 h 0.87995 c 0.90953,0 1.09827,0.15706 1.09827,0.9139 0,0.31105 0.14016,0.34496 1.42586,0.34496 1.05646,0 1.49908,-0.0732 1.70847,-0.2826 0.69295,-0.69295 0.2558,-1.06341 -1.90299,-1.6127 -0.91134,-0.23189 -1.86469,-0.57641 -2.11856,-0.76562 -1.56236,-1.16441 -1.5392,-3.60072 0.0455,-4.78357 0.45483,-0.3395 0.79352,-0.38442 3.28897,-0.4362 l 2.78193,-0.0577 -0.0519,1.67627 -0.0519,1.67627 -0.79144,0.0566 c -0.84906,0.0608 -1.08933,-0.11954 -1.0941,-0.82095 -0.003,-0.3773 -0.0807,-0.40463 -1.15701,-0.40463 -1.48043,0 -1.72317,0.10133 -1.72317,0.71935 0,0.57244 0.0281,0.5879 2.15151,1.18072 2.38296,0.6653 3.15373,1.42382 3.15373,3.10363 0,1.25292 -0.51047,2.07137 -1.60076,2.56652 -0.61057,0.27729 -1.19262,0.33545 -3.38976,0.33872 l -2.65262,0.004 z m 21.49071,1.38085 c -1.58697,-0.75215 -1.8892,-1.55638 -1.88536,-5.0168 0.003,-2.41897 0.0391,-2.7215 0.40465,-3.35903 0.63956,-1.11558 1.31278,-1.36751 3.65433,-1.36751 1.77653,0 2.06641,0.0452 2.60074,0.40525 1.18166,0.79632 1.34014,1.32262 1.34014,4.45039 0,3.14359 -0.11575,3.52037 -1.40053,4.5588 -0.63199,0.5108 -0.80087,0.55487 -2.33791,0.61021 -1.34046,0.0483 -1.79403,-0.005 -2.37606,-0.28131 z m 3.28699,-2.1104 c 0.38028,-0.26636 0.39969,-0.40079 0.39969,-2.76826 0,-2.1031 -0.044,-2.5052 -0.28446,-2.59746 -0.50792,-0.19491 -2.51342,-0.11675 -2.73683,0.10665 -0.14537,0.14537 -0.2158,0.96713 -0.2158,2.51774 0,2.06215 0.0375,2.3394 0.35968,2.66161 0.44781,0.44781 1.88612,0.49409 2.47772,0.0797 z m 4.1763,1.55311 c 0,-0.83851 0.0285,-0.89116 0.5437,-1.00432 l 0.5437,-0.11941 -0.0491,-3.08701 -0.0492,-3.08701 -0.49455,-0.0569 c -0.465,-0.0535 -0.49456,-0.10993 -0.49456,-0.94414 v -0.88725 h 1.51969 c 1.20774,0 1.55284,0.0592 1.68115,0.2885 0.14818,0.26478 0.20734,0.26478 0.71936,0 0.39145,-0.20243 1.04347,-0.2885 2.18538,-0.2885 h 1.62748 v 1.71831 1.71832 l -0.85423,-0.0548 c -0.81908,-0.0525 -0.85656,-0.0789 -0.91059,-0.63929 -0.0532,-0.55212 -0.096,-0.58447 -0.77249,-0.58447 -0.52055,0 -0.83669,0.12056 -1.15756,0.44142 -0.42642,0.42644 -0.44142,0.52652 -0.44142,2.94733 v 2.50589 l 0.62944,0.11809 c 0.61877,0.11608 0.62943,0.13317 0.62943,1.00912 v 0.89105 h -2.42782 -2.42782 z m 11.59959,0.62901 c -0.29673,-0.133 -0.73052,-0.42454 -0.96397,-0.64786 -0.78625,-0.75216 -0.92434,-1.40595 -0.92434,-4.37646 0,-2.95413 -0.0117,-2.99235 -0.9139,-2.99235 -0.29407,0 -0.34497,-0.13267 -0.34497,-0.89919 v -0.8992 h 0.6117 0.61169 l 0.12923,-2.06814 0.12921,-2.06814 h 1.05748 1.05747 v 2.06814 2.06814 h 0.98911 0.98911 v 0.98912 c 0,0.92127 -0.0293,0.9891 -0.42712,0.9891 -0.23491,0 -0.68001,0.0506 -0.98911,0.11241 l -0.56199,0.11239 v 2.49526 c 0,2.94407 0.12864,3.21461 1.52863,3.21461 h 0.80927 v 1.07903 1.07903 l -1.124,-0.007 c -0.61819,-0.004 -1.36677,-0.11586 -1.6635,-0.24886 z"
       id="path1422" />
    <path
       d="m 31.275858,153.09655 -3.009892,-3.0138 5.574576,-5.5724 c 3.066016,-3.06482 5.574574,-5.65334 5.574574,-5.75227 0,-0.0989 -2.508956,-2.68978 -5.57546,-5.75744 l -5.57546,-5.57756 3.058366,-3.0544 3.058365,-3.0544 8.721529,8.72014 8.721528,8.72014 -8.676518,8.67789 c -4.772086,4.77285 -8.718188,8.67791 -8.769117,8.67791 -0.05093,0 -1.44705,-1.35622 -3.102491,-3.01381 z m 14.926608,1e-5 -3.009882,-3.0138 5.664501,-5.66235 5.664502,-5.66237 -5.665403,-5.66747 -5.665404,-5.66748 3.058372,-3.0544 3.058374,-3.05441 8.721529,8.72014 8.721528,8.72014 -8.676518,8.67789 c -4.772086,4.77285 -8.718187,8.67791 -8.769118,8.67791 -0.05093,0 -1.447045,-1.35621 -3.102481,-3.0138 z"
       style="fill:#1685ac;fill-opacity:1;stroke-width:0.179838"
       id="path3027" />
  </g>
</svg>
